{"title":"Ek Tha Tiger (Audio Cleaned)- SCam Rip - 720p x264","uid":7536251,"size":1686870276,"categoryP":"video","categoryS":"hd___movies","magnet":"?xt=urn:btih:4c49c0a63cdd64fa204eafb259187383b9dd0f0f&amp;dn=Ek+Tha+Tiger+%28Audio+Cleaned%29-+SCam+Rip+-+720p+x264&amp;tr=udp%3A%2F%2Ftracker.openbittorrent.com%3A80&amp;tr=udp%3A%2F%2Fopen.demonii.com%3A1337&amp;tr=udp%3A%2F%2Ftracker.coppersurfer.tk%3A6969&amp;tr=udp%3A%2F%2Fexodus.desync.com%3A6969","seeders":0,"leechers":0,"uploader":"kspatel1","files":10,"time":1345096673,"description":" &lt;a href=&quot;http://www1.picturepush.com/photo/a/8984714/img/Ek-Tha-Tiger/Cover.jpg&quot; rel=&quot;nofollow&quot; target=&quot;_NEW&quot;&gt;http://www1.picturepush.com/photo/a/8984714/img/Ek-Tha-Tiger/Cover.jpg&lt;/a&gt;\n\nGeneral\nFormat                                   : Matroska\nFile size                                : 1.57 GiB\nDuration                                 : 1h 43mn\nOverall bit rate                         : 2 162 Kbps\nMovie name                               : Ek Tha Tiger (Audio Cleaned)- SCam Rip - 720p x264\n\nVideo\nID                                       : 1\nFormat                                   : MPEG Video\nCodec ID                                 : V_MPEG2\nDuration                                 : 1h 43mn\nBit rate                                 : 1 959 Kbps\nMaximum bit rate                         : 2 000 Kbps\nWidth                                    : 720 pixels\nHeight                                   : 576 pixels\nFrame rate                               : 25.000 fps\nBit depth                                : 8 bits\nStream size                              : 1.42 GiB (91%)\nTitle                                    : Ek Tha Tiger (Audio Cleaned)- SCam Rip - 720p x264\nLanguage                                 : Hindi\n\nAudio\nID                                       : 2\nFormat                                   : MPEG Audio\nCodec ID                                 : A_MPEG/L2\nDuration                                 : 1h 43mn\nBit rate                                 : 160 Kbps\nChannel(s)                               : 2 channels\nSampling rate                            : 48.0 KHz\nStream size                              : 119 MiB (7%)\n\nScreenshots &lt;a href=&quot;\nhttp://www4.picturepush.com/photo/a/8984797/img/Ek-Tha-Tiger/1.png&quot; rel=&quot;nofollow&quot; target=&quot;_NEW&quot;&gt;\nhttp://www4.picturepush.com/photo/a/8984797/img/Ek-Tha-Tiger/1.png&lt;/a&gt; &lt;a href=&quot;\nhttp://www5.picturepush.com/photo/a/8984798/img/Ek-Tha-Tiger/2.png&quot; rel=&quot;nofollow&quot; target=&quot;_NEW&quot;&gt;\nhttp://www5.picturepush.com/photo/a/8984798/img/Ek-Tha-Tiger/2.png&lt;/a&gt; &lt;a href=&quot;\nhttp://www1.picturepush.com/photo/a/8984799/img/Ek-Tha-Tiger/3.png&quot; rel=&quot;nofollow&quot; target=&quot;_NEW&quot;&gt;\nhttp://www1.picturepush.com/photo/a/8984799/img/Ek-Tha-Tiger/3.png&lt;/a&gt; &lt;a href=&quot;\nhttp://www3.picturepush.com/photo/a/8984801/img/Ek-Tha-Tiger/4.png&quot; rel=&quot;nofollow&quot; target=&quot;_NEW&quot;&gt;\nhttp://www3.picturepush.com/photo/a/8984801/img/Ek-Tha-Tiger/4.png&lt;/a&gt; &lt;a href=&quot;\nhttp://www5.picturepush.com/photo/a/8984803/img/Ek-Tha-Tiger/5.png&quot; rel=&quot;nofollow&quot; target=&quot;_NEW&quot;&gt;\nhttp://www5.picturepush.com/photo/a/8984803/img/Ek-Tha-Tiger/5.png&lt;/a&gt; &lt;a href=&quot;\nhttp://www1.picturepush.com/photo/a/8984804/img/Ek-Tha-Tiger/6.png&quot; rel=&quot;nofollow&quot; target=&quot;_NEW&quot;&gt;\nhttp://www1.picturepush.com/photo/a/8984804/img/Ek-Tha-Tiger/6.png&lt;/a&gt;","torrent":{"xt":"urn:btih:4c49c0a63cdd64fa204eafb259187383b9dd0f0f","amp;dn":"Ek+Tha+Tiger+%28Audio+Cleaned%29-+SCam+Rip+-+720p+x264","amp;tr":["udp%3A%2F%2Ftracker.openbittorrent.com%3A80","udp%3A%2F%2Fopen.demonii.com%3A1337","udp%3A%2F%2Ftracker.coppersurfer.tk%3A6969","udp%3A%2F%2Fexodus.desync.com%3A6969"],"infoHash":"4c49c0a63cdd64fa204eafb259187383b9dd0f0f","infoHashBuffer":{"type":"Buffer","data":[76,73,192,166,60,221,100,250,32,78,175,178,89,24,115,131,185,221,15,15]},"announce":[],"urlList":[]}}